<?xml version="1.0" encoding="UTF-8"?> <svg xmlns="http://www.w3.org/2000/svg" width="183" height="62" viewBox="0 0 183 62" fill="none"> <path d="M29.8079 33.2366C29.0607 40.7661 22.6134 46.6502 14.9037 46.6502C7.19395 46.6502 0.747214 40.7661 0 33.2366C2.83798 33.3599 5.45435 34.0418 7.42306 36.9762C10.3854 41.3915 11.1482 45.8068 14.7924 45.8947L14.9037 45.896C18.644 45.896 19.392 41.4361 22.3843 36.9762C24.3531 34.0416 26.9698 33.3598 29.8079 33.2366ZM93.8438 25.8961L93.994 25.8973C96.7544 25.8973 98.8289 26.9503 100.1 28.6718H100.167V26.4489H103.463V42.5942C103.463 43.4131 103.48 44.0315 103.496 44.416H100.368V42.2265H100.301C99.6821 43.0454 98.7954 43.714 97.6578 44.2488C96.5202 44.7669 95.3157 45.0344 94.0275 45.0344C88.7577 45.1179 85.1776 40.9228 85.2278 35.4073C85.1609 29.9754 88.9752 25.8137 93.994 25.8973L93.8438 25.8961ZM144.955 25.8961L145.105 25.8973C147.865 25.8973 149.94 26.9503 151.211 28.6718H151.278V26.4489H154.574V42.5942C154.574 43.4131 154.59 44.0315 154.607 44.416H151.479V42.2265H151.412C150.793 43.0454 149.906 43.714 148.768 44.2488C147.631 44.7669 146.426 45.0344 145.138 45.0344C139.869 45.1179 136.289 40.9228 136.339 35.4073C136.272 29.9754 140.086 25.8137 145.105 25.8973L144.955 25.8961ZM50.9629 19.9473L50.7956 23.1897H42.5647C39.5701 23.1897 38.2485 23.9418 38.2485 26.0979C38.3489 28.4043 39.3694 29.0395 42.6316 29.9086L45.5426 30.6941C47.1319 31.1119 48.42 31.5298 49.3903 31.9643C50.3774 32.3989 51.1804 33.0507 51.7994 33.9198C52.4184 34.7889 52.7362 35.9589 52.7362 37.4297C52.7362 40.1707 51.8663 41.8253 50.3105 42.9452C49.5242 43.4967 48.5706 43.8811 47.4832 44.0984C46.3958 44.3157 45.0407 44.416 43.3845 44.416H34.9863V41.2404H44.1707C47.4163 41.2404 49.1394 40.5384 49.1394 37.9478C49.1394 37.179 48.9554 36.5606 48.5873 36.1093C48.2193 35.658 47.7174 35.2903 47.0984 35.0396C46.4794 34.7722 45.5928 34.4881 44.4551 34.1872L41.3267 33.3516C39.7876 32.9337 38.5664 32.5159 37.663 32.098C36.7763 31.6635 36.0402 30.995 35.4881 30.1091C34.9361 29.2066 34.6517 27.9698 34.6517 26.382C34.6517 24.4265 35.2037 22.9056 36.3246 21.8192C37.0607 21.1339 37.9306 20.666 38.9177 20.3818C39.9215 20.0977 41.2933 19.9473 43.0499 19.9473H50.9629ZM76.0753 25.8973C80.2242 25.8973 82.6835 28.5548 82.6835 33.1844V44.416H79.2539V34.1204C79.2539 30.7777 78.0828 28.8723 75.0883 28.8723C72.1104 28.8723 70.6215 31.0952 70.6215 33.4686V44.416H67.2087V34.1204C67.2087 30.7777 66.0209 28.8723 63.0263 28.8723C60.0485 28.8723 58.5596 31.0952 58.5596 33.4686V44.416H55.1467L55.1466 29.2417C55.1452 28.011 55.1292 27.0704 55.1133 26.4489H58.4592V28.6718H58.4926C59.3124 27.1508 61.5541 25.8973 64.0134 25.8973C66.6399 25.8973 68.614 26.9837 69.7014 28.9726H69.7683C70.2869 28.1536 71.0732 27.4517 72.1272 26.8333C73.1811 26.2149 74.5027 25.8973 76.0753 25.8973ZM110.842 19.9473V44.416H107.429V19.9473H110.842ZM118.238 19.9473V44.416H114.825V19.9473H118.238ZM137.709 19.9473V23.1229H131.051V44.416H127.488V23.1229H120.846V19.9473H137.709ZM161.952 19.9473V44.416H158.54V19.9473H161.952ZM169.398 19.9473V34.4547L177.378 26.4489H181.828L172.995 34.7555L181.828 44.416H177.311L169.398 35.4073V44.416H165.935V19.9473H169.398ZM94.5461 28.8723C91.0329 28.8389 88.7577 31.6635 88.7912 35.4408C88.7577 39.1846 91.0329 42.1095 94.5461 42.0593C98.0593 42.1095 100.335 39.1846 100.301 35.4408C100.301 31.5799 98.1262 28.8723 94.5461 28.8723ZM145.657 28.8723C142.144 28.8389 139.869 31.6635 139.902 35.4408C139.869 39.1846 142.144 42.1095 145.657 42.0593C149.17 42.1095 151.445 39.1846 151.412 35.4408C151.412 31.5799 149.237 28.8723 145.657 28.8723ZM14.9036 16.8423C22.6133 16.8423 29.0606 22.7263 29.8079 30.2558C26.9697 30.1327 24.3531 29.4509 22.3842 26.5163C19.4219 22.101 18.6591 17.6856 15.0149 17.5978L14.9036 17.5964C11.1633 17.5964 10.4152 22.0564 7.42298 26.5163C5.45427 29.4507 2.8379 30.1326 0 30.2558C0.747131 22.7263 7.19386 16.8423 14.9036 16.8423Z" fill="black"></path> </svg> 